<svg id="ai-chip-14067" xmlns="http://www.w3.org/2000/svg" width="40" height="40" viewBox="0 0 40 40">
  <path id="Path_36414" data-name="Path 36414" d="M119.353,8.32a1.333,1.333,0,0,1-1.333-1.333V1.333a1.333,1.333,0,0,1,2.667,0V6.986A1.333,1.333,0,0,1,119.353,8.32Z" transform="translate(-99.353)" fill="#00a3e0"/>
  <path id="Path_36415" data-name="Path 36415" d="M148.2,8.32a1.333,1.333,0,0,1-1.333-1.333V1.333a1.333,1.333,0,0,1,2.667,0V6.986A1.333,1.333,0,0,1,148.2,8.32Z" transform="translate(-123.64)" fill="#00a3e0"/>
  <path id="Path_36416" data-name="Path 36416" d="M177.051,8.32a1.333,1.333,0,0,1-1.333-1.333V1.333a1.333,1.333,0,1,1,2.667,0V6.986A1.333,1.333,0,0,1,177.051,8.32Z" transform="translate(-147.925)" fill="#00a3e0"/>
  <path id="Path_36417" data-name="Path 36417" d="M90.5,8.32A1.333,1.333,0,0,1,89.17,6.986V1.333a1.333,1.333,0,1,1,2.667,0V6.986A1.333,1.333,0,0,1,90.5,8.32Z" transform="translate(-75.066)" fill="#00a3e0"/>
  <path id="Path_36418" data-name="Path 36418" d="M61.656,8.32a1.333,1.333,0,0,1-1.333-1.333V1.333a1.333,1.333,0,1,1,2.667,0V6.986A1.333,1.333,0,0,1,61.656,8.32Z" transform="translate(-50.781)" fill="#00a3e0"/>
  <path id="Path_36419" data-name="Path 36419" d="M119.353,208.619a1.333,1.333,0,0,1-1.333-1.333v-5.653a1.333,1.333,0,0,1,2.667,0v5.653A1.333,1.333,0,0,1,119.353,208.619Z" transform="translate(-99.353 -168.619)" fill="#00a3e0"/>
  <path id="Path_36420" data-name="Path 36420" d="M148.2,208.619a1.333,1.333,0,0,1-1.333-1.333v-5.653a1.333,1.333,0,0,1,2.667,0v5.653A1.333,1.333,0,0,1,148.2,208.619Z" transform="translate(-123.64 -168.619)" fill="#00a3e0"/>
  <path id="Path_36421" data-name="Path 36421" d="M177.051,208.619a1.333,1.333,0,0,1-1.333-1.333v-5.653a1.333,1.333,0,1,1,2.667,0v5.653A1.333,1.333,0,0,1,177.051,208.619Z" transform="translate(-147.925 -168.619)" fill="#00a3e0"/>
  <path id="Path_36422" data-name="Path 36422" d="M90.5,208.619a1.333,1.333,0,0,1-1.333-1.333v-5.653a1.333,1.333,0,0,1,2.667,0v5.653A1.333,1.333,0,0,1,90.5,208.619Z" transform="translate(-75.066 -168.619)" fill="#00a3e0"/>
  <path id="Path_36423" data-name="Path 36423" d="M61.656,208.619a1.333,1.333,0,0,1-1.333-1.333v-5.653a1.333,1.333,0,0,1,2.667,0v5.653A1.333,1.333,0,0,1,61.656,208.619Z" transform="translate(-50.781 -168.619)" fill="#00a3e0"/>
  <path id="Path_36424" data-name="Path 36424" d="M6.986,120.687H1.333a1.333,1.333,0,0,1,0-2.667H6.986a1.333,1.333,0,0,1,0,2.667Z" transform="translate(0 -99.353)" fill="#00a3e0"/>
  <path id="Path_36425" data-name="Path 36425" d="M6.986,91.836H1.333a1.333,1.333,0,1,1,0-2.667H6.986a1.333,1.333,0,1,1,0,2.667Z" transform="translate(0 -75.066)" fill="#00a3e0"/>
  <path id="Path_36426" data-name="Path 36426" d="M6.986,62.989H1.333a1.333,1.333,0,1,1,0-2.667H6.986a1.333,1.333,0,1,1,0,2.667Z" transform="translate(0 -50.781)" fill="#00a3e0"/>
  <path id="Path_36427" data-name="Path 36427" d="M6.986,149.537H1.333a1.333,1.333,0,0,1,0-2.667H6.986a1.333,1.333,0,0,1,0,2.667Z" transform="translate(0 -123.64)" fill="#00a3e0"/>
  <path id="Path_36428" data-name="Path 36428" d="M6.986,178.384H1.333a1.333,1.333,0,1,1,0-2.667H6.986a1.333,1.333,0,1,1,0,2.667Z" transform="translate(0 -147.925)" fill="#00a3e0"/>
  <path id="Path_36429" data-name="Path 36429" d="M207.286,120.687h-5.653a1.333,1.333,0,0,1,0-2.667h5.653a1.333,1.333,0,0,1,0,2.667Z" transform="translate(-168.619 -99.353)" fill="#00a3e0"/>
  <path id="Path_36430" data-name="Path 36430" d="M207.286,91.836h-5.653a1.333,1.333,0,0,1,0-2.667h5.653a1.333,1.333,0,0,1,0,2.667Z" transform="translate(-168.619 -75.066)" fill="#00a3e0"/>
  <path id="Path_36431" data-name="Path 36431" d="M207.286,62.989h-5.653a1.333,1.333,0,0,1,0-2.667h5.653a1.333,1.333,0,0,1,0,2.667Z" transform="translate(-168.619 -50.781)" fill="#00a3e0"/>
  <path id="Path_36432" data-name="Path 36432" d="M207.286,149.537h-5.653a1.333,1.333,0,0,1,0-2.667h5.653a1.333,1.333,0,0,1,0,2.667Z" transform="translate(-168.619 -123.64)" fill="#00a3e0"/>
  <path id="Path_36433" data-name="Path 36433" d="M207.286,178.384h-5.653a1.333,1.333,0,1,1,0-2.667h5.653a1.333,1.333,0,0,1,0,2.667Z" transform="translate(-168.619 -147.925)" fill="#00a3e0"/>
  <path id="Path_36434" data-name="Path 36434" d="M63.1,35.74H37.074a1.333,1.333,0,0,0-1.333,1.333V63.1a1.333,1.333,0,0,0,1.333,1.333H63.1A1.333,1.333,0,0,0,64.435,63.1V37.074A1.334,1.334,0,0,0,63.1,35.74ZM51.47,56.33a1.333,1.333,0,0,1-2.667,0V52H43.721V56.33a1.333,1.333,0,0,1-2.667,0V47.719a5.208,5.208,0,0,1,10.416,0ZM57.787,55a1.333,1.333,0,1,1,0,2.667H54.367a1.333,1.333,0,1,1,0-2.667h.377V45.178h-.377a1.333,1.333,0,0,1,0-2.667h3.421a1.333,1.333,0,0,1,0,2.667H57.41V55h.377Z" transform="translate(-30.088 -30.088)" fill="#00a3e0"/>
  <path id="Path_36435" data-name="Path 36435" d="M88.738,95.411A2.544,2.544,0,0,0,86.2,97.952v1.61H91.28v-1.61A2.545,2.545,0,0,0,88.738,95.411Z" transform="translate(-72.563 -80.32)" fill="#00a3e0"/>
</svg>
