<svg xmlns="http://www.w3.org/2000/svg" width="42.093" height="40" viewBox="0 0 42.093 40">
  <g id="Group_7829" data-name="Group 7829" transform="translate(-106.954 -794)">
    <path id="hand-coin" d="M31.016,22a10,10,0,1,0-10-10,10,10,0,0,0,10,10m10.9,11.2a3.909,3.909,0,0,0-2.9-1.2h-14l-4.16-1.46.66-1.88,3.5,1.34h5.6a2.355,2.355,0,0,0,1.72-.74,2.362,2.362,0,0,0-.88-3.88L16.916,20h-3.9V38l14,4,16.06-6a3.808,3.808,0,0,0-1.16-2.8M9.016,20H.984V42H9.016Z" transform="translate(105.97 792)" fill="#00a3e0"/>
    <path id="Path_36413" data-name="Path 36413" d="M4.553,1.046V-.8A12.656,12.656,0,0,1,2.624-.976a6.559,6.559,0,0,1-1.5-.413V-2.812a7.764,7.764,0,0,0,1.556.492,9.445,9.445,0,0,0,1.872.229V-5.959A9.17,9.17,0,0,1,2.632-6.7,3,3,0,0,1,1.494-7.726a2.721,2.721,0,0,1-.378-1.468,2.694,2.694,0,0,1,.426-1.534,2.851,2.851,0,0,1,1.2-1,4.842,4.842,0,0,1,1.811-.413v-1.521H5.625v1.5a8.634,8.634,0,0,1,1.714.207,8.642,8.642,0,0,1,1.433.461l-.457,1.222a9.553,9.553,0,0,0-1.292-.4,9.516,9.516,0,0,0-1.4-.229v3.841A12.669,12.669,0,0,1,7.6-6.328a3.073,3.073,0,0,1,1.2.958,2.5,2.5,0,0,1,.4,1.477,2.567,2.567,0,0,1-.94,2.07A4.75,4.75,0,0,1,5.625-.87V1.046ZM5.625-2.171a3.094,3.094,0,0,0,1.613-.523A1.334,1.334,0,0,0,7.77-3.8a1.453,1.453,0,0,0-.207-.809,1.665,1.665,0,0,0-.672-.549A6.779,6.779,0,0,0,5.625-5.6ZM4.553-7.427v-3.437a3.221,3.221,0,0,0-1.107.246,1.577,1.577,0,0,0-.672.527,1.329,1.329,0,0,0-.224.773,1.728,1.728,0,0,0,.2.866,1.578,1.578,0,0,0,.642.589A5.4,5.4,0,0,0,4.553-7.427Z" transform="translate(131.959 811)" fill="#fff"/>
  </g>
</svg>
